<svg width="343" height="300" fill="none" xmlns="http://www.w3.org/2000/svg"><g clip-path="url(#a)"><path d="M291.4 182.62c-.68-11.98-5.99-35.98 1-58.11 3.55-11.25 11.72-23.17 23.87-26.53 4.3-1.19 9.62-1.03 11.73 3.87.36.82.55 1.71.62 2.61.26 3.72-1.43 7.02-3.31 10.06-4.31 6.96-9.77 13.13-14.14 20.06-2.31 3.67-4.29 7.52-6.01 11.49" stroke="#C5E5E8" stroke-miterlimit="10"/><path d="M291.12 190.46c0 1.44.38 3.24.06 4.61-.1.41-.18.86 0 1.25s.74.61 1.04.32c.22-.21.45-1.76.6-2.15.3-.84.76-1.65 1.16-2.45.8-1.62 1.64-3.21 2.54-4.77 1.85-3.22 3.92-6.32 6.18-9.27a83.834 83.834 0 0 1 15.47-15.51c6.3-4.84 13.28-8.77 19.44-13.78 1.82-1.48 3.63-3.15 4.41-5.35 1.16-3.3-.38-7.15-3.12-9.32s-6.43-2.86-9.91-2.6c-3.34.25-7.83 1.68-11.52 3.69-7.52 4.1-12.69 10.44-16.82 17.63-5.52 9.59-8.66 20.51-9.51 31.52v6.19l-.02-.01Z" stroke="#C5E5E8" stroke-miterlimit="10"/><path d="M334.04 137.42c-14.23 4.08-35.32 20.42-42.93 50.75M319.41 104.46c-7.68 6.11-26.03 25.48-28.34 56.79" stroke="#C5E5E8" stroke-miterlimit="10"/><path d="M288.29 37.76 232.69 5.7c-1.18-.68-2.25-.75-3.02-.3-.72.41-3.28 1.9-4 2.31-.78.44-1.26 1.4-1.26 2.77v152.16c0 2.73 1.91 6.04 4.28 7.4l55.6 32.06c1.18.68 2.25.75 3.02.3.72-.41 3.3-1.9 4.02-2.32.77-.45 1.24-1.4 1.24-2.76V45.16c0-2.73-1.91-6.04-4.27-7.4h-.01Z" fill="#2E404C"/><path d="m236.43 165.27-4.01 2.31v12.66c0 .68.48 1.51 1.07 1.85l1.87 1.08c.59.34 1.55.34 2.14 0l1.87-1.08c.59-.34 1.25-1.14 1.47-1.78l3.61-10.41-8.02-4.63Z" fill="#263238"/><path d="M232.42 180.24c0 .68.48 1.51 1.07 1.85l1.87 1.08c.59.34 1.25.1 1.47-.55l3.61-10.41-8.02-4.63v12.66Z" fill="#37474F"/><path d="m276.52 188.37-4.01 2.31v12.66c0 .68.48 1.51 1.07 1.85l1.87 1.08c.59.34 1.55.34 2.14 0l1.87-1.08c.59-.34 1.25-1.14 1.47-1.78l3.61-10.41-8.02-4.63Z" fill="#263238"/><path d="M272.51 203.34c0 .68.48 1.51 1.07 1.85l1.87 1.08c.59.34 1.25.1 1.47-.55l3.61-10.41-8.02-4.63v12.66Z" fill="#37474F"/><path d="m228.96 8.09 55.6 32.06c2.36 1.36 4.27 4.68 4.27 7.4v152.16c0 1.36-.48 2.32-1.25 2.77-.77.45-1.84.38-3.02-.3l-55.6-32.06c-2.36-1.36-4.27-4.68-4.27-7.4V10.56c0-1.37.48-2.33 1.26-2.77.77-.44 1.84-.37 3.01.31v-.01Z" fill="#344756"/><path d="m148.22 216.15 60.14 34.72 84.2-48.61-4.01-2.32-60.14-34.72-80.19 46.3v4.63Z" fill="#3C5265"/><path d="M208.36 250.87v-4.63l84.2-48.61v4.63l-84.2 48.61Z" fill="#2E404C"/><path d="M208.43 243.92c11.25-17.02 10.62-47.1 9.66-52.18 0 0 4.75 31.8 10.59 40.89" stroke="#FAFAFA" stroke-width=".74" stroke-miterlimit="10"/><path d="M220.09 203.3c1.93 9.27 23.87 15.82 23.87 15.82" stroke="#FAFAFA" stroke-width=".74" stroke-miterlimit="10"/><path d="M217.93 212.52c.62-1.51 3.67-1.71 4.25.73 0 0 .35-4.5 2.89-3.23M217.06 219.12c1.13-2.42 5.29-3.75 7.12 1.99 0 0 .28-10.27 7.07-7.18" stroke="#FAFAFA" stroke-width=".74" stroke-miterlimit="10"/><path d="M215.13 228.21c2.38-4.58 8.91-6.41 10.59-2.19.04-5.22 6.01-11.79 13.3-8.63M211.09 239.24c2.79-5.08 9.65-14.24 15.62-10.55" stroke="#FAFAFA" stroke-width=".74" stroke-miterlimit="10"/><path d="M284.54 151.33v4.63l-76.18 43.98-60.14-34.72v-4.63l76.18-43.98 60.14 34.72Z" fill="#2E404C"/><path d="m284.54 151.33-76.18 43.98-60.14-34.72 76.18-43.98 60.14 34.72Z" fill="#3C5265"/><path d="M284.54 100.4v4.63l-76.18 43.99-60.14-34.73v-4.63l76.18-43.98 60.14 34.72Z" fill="#2E404C"/><path d="m284.54 100.4-76.18 43.98-60.14-34.72 76.18-43.98 60.14 34.72Z" fill="#3C5265"/><path d="m208.1 84-55.6-32.06c-1.18-.68-2.25-.75-3.02-.3-.72.41-3.28 1.9-4 2.31-.78.44-1.26 1.4-1.26 2.77v152.16c0 2.73 1.91 6.04 4.28 7.4l55.6 32.06c1.18.68 2.25.75 3.02.3.72-.41 3.3-1.9 4.02-2.32.77-.45 1.24-1.4 1.24-2.76V91.4c0-2.73-1.91-6.04-4.27-7.4h-.01Z" fill="#2E404C"/><path opacity=".2" d="m208.36 107.35 4.01-2.31v-13.9l-4.02 2.32.01 13.89ZM288.56 61.06l4.02-2.32V44.85l-4.03 2.32.01 13.89Z" fill="#000"/><path d="m156.24 211.52-4.01 2.31v12.66c0 .68.48 1.51 1.07 1.85l1.87 1.08c.59.34 1.55.34 2.14 0l1.87-1.08c.59-.34 1.25-1.14 1.47-1.78l3.61-10.41-8.02-4.63Z" fill="#263238"/><path d="M152.23 226.49c0 .68.48 1.51 1.07 1.85l1.87 1.08c.59.34 1.25.1 1.47-.55l3.61-10.41-8.02-4.63v12.66Z" fill="#37474F"/><path d="m196.33 234.62-4.01 2.31v12.66c0 .68.48 1.51 1.07 1.85l1.87 1.08c.59.34 1.55.34 2.14 0l1.87-1.08c.59-.34 1.25-1.14 1.47-1.78l3.61-10.41-8.02-4.63Z" fill="#263238"/><path d="M192.32 249.59c0 .68.48 1.51 1.07 1.85l1.87 1.08c.59.34 1.25.1 1.47-.55l3.61-10.41-8.02-4.63v12.66Z" fill="#37474F"/><path d="m148.48 54.26 55.6 32.06c2.36 1.36 4.27 4.68 4.27 7.4v157.14s-3.09-1.83-4.28-2.51l-55.6-32.06c-2.36-1.36-4.27-4.68-4.27-7.4V56.73c0-1.37.48-2.33 1.26-2.77.77-.44 1.84-.37 3.01.31l.01-.01Z" fill="#344756"/><path opacity=".2" d="m204.08 86.32-55.6-32.06c-1.17-.68-2.24-.75-3.01-.31-.78.44-1.26 1.4-1.26 2.77V70.3l64.15 37.04V93.71c0-2.73-1.91-6.04-4.27-7.4l-.01.01Z" fill="#000"/><path d="m236.42 79.57 44.11-25.46v46.29" stroke="#FAFAFA" stroke-width=".74" stroke-linecap="round" stroke-linejoin="round"/><path d="m272.51 88.83 8.02-34.72-16.04 27.78M280.53 54.11l-24.06 23.14" stroke="#FAFAFA" stroke-width=".74" stroke-linecap="round" stroke-linejoin="round"/><path d="M280.53 93.02c.01-6.49-7.4-6.85-7.4-6.85.45-1.97-.04-5.12-2.43-7.17-2.39-2.04-4.01-.92-4.49-.09 0 0 .5-5.97-4.66-6.54 0 0 3.42-6.31 0-7.31M280.53 83.04c-.26-3.32-2.8-7.55-5.41-5.51 0 0 .69-7.25-4.48-6.3 0 0 2.42-6.72-2.66-5.06 0 0 3.66-4.63.82-5.3" stroke="#FAFAFA" stroke-width=".74" stroke-linecap="round" stroke-linejoin="round"/><path d="M302.07 37.91c0-.89-.58-1.79-1.76-2.47L240.7 1.02c-2.36-1.36-6.19-1.36-8.55 0l-91.69 52.94c-1.18.68-1.77 1.58-1.76 2.47v4.63c0 .89.58 1.79 1.76 2.47l59.61 34.42c2.36 1.36 6.19 1.36 8.55 0l91.69-52.94c1.18-.68 1.77-1.58 1.76-2.47v-4.63Z" fill="#37474F"/><path d="m200.07 93.31-59.61-34.42c-2.36-1.36-2.36-3.57 0-4.94l91.69-52.93c2.36-1.36 6.19-1.36 8.55 0l59.61 34.42c2.36 1.36 2.36 3.57 0 4.94l-91.69 52.94c-2.36 1.36-6.19 1.36-8.55 0v-.01Z" fill="#3C5265"/><path opacity=".1" d="m288.55 51.79-28.07 34.72-48.11 27.79V95.77l76.18-43.98ZM284.54 105.03l-24.06 32.41-48.11 27.78V146.7l72.17-41.67ZM284.54 155.96l-24.06 32.41-48.11 27.78v-18.53l72.17-41.66Z" fill="#000"/><path d="m174.18 257.11-73.76 42.59-83.07-48.07 73.77-42.58 83.06 48.06Z" fill="#C5E5E8"/><path opacity=".5" d="m174.18 257.11-73.76 42.59-83.07-48.07 73.77-42.58 83.06 48.06Z" fill="#000"/><path d="M91.12 151.32v57.73l-73.77 42.58.01-57.72 73.76-42.59Z" fill="#C5E5E8"/><path opacity=".23" d="M91.12 151.32v57.73l-73.77 42.58.01-57.72 73.76-42.59Z" fill="#000"/><path d="M100.42 241.97v57.73l-83.07-48.07.01-57.72 83.06 48.06Z" fill="#C5E5E8"/><path opacity=".38" d="M100.42 241.97v57.73l-83.07-48.07.01-57.72 83.06 48.06Z" fill="#000"/><path d="M174.18 199.38v57.73l-83.06-48.06v-57.73l83.06 48.06Z" fill="#C5E5E8"/><path opacity=".4" d="M174.18 199.38v57.73l-83.06-48.06v-57.73l83.06 48.06Z" fill="#000"/><path d="M174.18 257.11v-57.73l-73.76 42.59v57.73l73.76-42.59Z" fill="#C5E5E8"/><path opacity=".23" d="M174.18 257.11v-57.73l-73.76 42.59v57.73l73.76-42.59Z" fill="#000"/><path d="m91.12 151.32.1-31.96 82.86 48.12.1 31.9-83.06-48.06Z" fill="#C5E5E8"/><path opacity=".2" d="m91.12 151.32.1-31.96 82.86 48.12.1 31.9-83.06-48.06Z" fill="#000"/><path d="m100.42 241.97 6.91-27.96 73.1-42.2-6.25 27.57-73.76 42.59Z" fill="#C5E5E8"/><path opacity=".3" d="m100.42 241.97 6.91-27.96 73.1-42.2-6.25 27.57-73.76 42.59Z" fill="#000"/><path d="m17.36 193.91-8.8-29 73.76-42.59 8.8 29-73.76 42.59Z" fill="#C5E5E8"/><path opacity=".1" d="m17.36 193.91-8.8-29 73.76-42.59 8.8 29-73.76 42.59Z" fill="#000"/><path d="M17.36 193.91 0 169.94 83.07 218l17.35 23.97-83.06-48.06Z" fill="#C5E5E8"/><path opacity=".45" d="M17.36 193.91 0 169.94 83.07 218l17.35 23.97-83.06-48.06Z" fill="#000"/><g opacity=".7" fill="#fff"><path d="M122.13 282.53c-.25 0-.45-.2-.45-.45v-10.16c0-.25.2-.45.45-.45s.45.2.45.45v10.16c0 .25-.2.45-.45.45Z"/><path d="M120.81 275.43c-.06 0-.12-.01-.18-.04a.459.459 0 0 1-.24-.6l1.61-3.73 1.8 2.08c.16.19.14.48-.05.64-.19.16-.48.14-.64-.05l-.86-.99-1.04 2.4c-.07.17-.24.27-.42.27l.02.02ZM126.33 280.14c-.25 0-.45-.2-.45-.45v-10.16c0-.25.2-.45.45-.45s.45.2.45.45v10.16c0 .25-.2.45-.45.45Z"/><path d="M125 273.04c-.06 0-.12-.01-.18-.04a.459.459 0 0 1-.24-.6l1.61-3.72 1.8 2.08c.16.19.14.48-.05.64-.19.16-.47.14-.64-.04l-.86-.99-1.04 2.4c-.07.17-.24.27-.42.27h.02Z"/></g><g opacity=".7" fill="#fff"><path d="M110.05 289.42c-.18 0-.35-.04-.5-.13-.35-.2-.54-.59-.54-1.09v-1.24c0-.25.2-.45.45-.45s.45.2.45.45v1.24c0 .19.05.28.09.3.03.02.14.01.3-.08.4-.23.84-1.13.84-2.05v-5.2c0-.25.2-.45.45-.45s.45.2.45.45v5.2c0 1.18-.55 2.4-1.29 2.83-.24.14-.48.21-.71.21l.01.01Z"/><path d="M105.27 285.23v-.78c0-3.69 2.6-8.2 5.8-10.04 1.64-.94 3.2-1.08 4.39-.39 1.2.69 1.86 2.11 1.86 4v.26l-12.05 6.96v-.01Zm8.51-10.75c-.68 0-1.45.24-2.26.7-2.72 1.57-4.97 5.22-5.3 8.45l10.19-5.88c-.05-1.42-.55-2.46-1.4-2.96-.36-.21-.77-.31-1.23-.31Z"/></g><path opacity=".7" d="M0 169.94 83.07 218l17.35 23.97-18.27-23.13L0 169.94ZM174.18 199.38l-73.76 42.59v57.73l1.37-56.57 72.39-43.75Z" fill="#fff"/><path d="M65.93 176.29c7.61-1.1 14.56-5.98 18.97-12.17 2.05-2.88 3.61-6.11 4.5-9.54.81-3.15 1.27-6.68.46-9.88-1.38-5.48-6.46-8.73-11.83-9.42-2.71-.35-5.51-.09-8.1.8-2.75.95-5 2.68-6.7 5.05-.88 1.23-1.8 2.75-1.85 4.31-.04 1.36.94 2.33 2.24 2.55 1.57.27 3.23-.4 4.58-1.16 1.66-.93 3.08-2.15 4.27-3.64 2.42-3.04 4.49-6.75 5.54-10.5.91-3.25.71-6.79.02-10.06-.71-3.34-2.09-6.75-4.54-9.2-2.56-2.57-6.21-3.84-9.73-4.3-3.57-.47-7.33-.15-10.75 1.03-1.47.51-2.99 1.19-4.13 2.25-.86.8-1.84 2.13-1.49 3.42.39 1.44 2.25 1.88 3.54 1.71 1.88-.24 3.68-1.41 5.01-2.71 1.47-1.43 2.79-3.18 3.77-4.99.72-1.33 1.16-2.81 1.13-4.34-.13-6.35-7.13-10.45-12.63-11.6-1.49-.31-2.99-.41-4.51-.3-.51.04-.2.84.21.81 2.88-.22 5.86.65 8.41 1.93 2.48 1.24 4.85 3.07 6.21 5.53 1.37 2.48 1.22 5.33-.23 7.74-.99 1.65-2.19 3.32-3.62 4.62-1.19 1.08-2.98 2.33-4.68 2.21-.5-.04-1.13-.27-1.32-.83-.22-.65.27-1.42.6-1.82.81-1.01 2.05-1.61 3.23-2.14 2.93-1.3 6.31-1.72 9.49-1.56 3.27.17 6.68 1.01 9.34 3.01 2.5 1.87 3.97 4.78 4.86 7.71.92 3.03 1.3 6.35.88 9.5-.44 3.21-1.97 6.28-3.63 9.02-1.85 3.05-4.17 5.97-7.65 7.2-.86.3-2.66.76-3-.5-.34-1.23.64-2.78 1.28-3.75 1.44-2.2 3.38-3.91 5.82-4.91 2.29-.94 4.83-1.29 7.29-1.1 4.71.36 9.49 2.82 11.13 7.5.96 2.74.77 5.79.25 8.6-.57 3.11-1.72 6.11-3.31 8.84-3.4 5.86-8.71 10.26-14.89 12.94-1.48.64-3.02 1.18-4.55 1.69-.16.05-.09.45.09.43l.02.02Z" fill="#E0E0E0"/><path d="M34.14 89.47c-4.05-.28-9.51 2.86-7.55 5.16 1.96 2.3 7.17-1.42 7.17-1.42s-.49 4.65 1.21 5.18c1.7.53 3.95-3.9 2.3-6.74 0 0 2.56 1.13 4.97-.65 2.41-1.78-.15-3.45-3.56-3.16 0 0 2.44-7.98-2.49-6.47-2.44.74-3.31 3.64-2.05 8.1Z" fill="#C5E5E8"/><path opacity=".65" d="M34.14 89.47c-4.05-.28-9.51 2.86-7.55 5.16 1.96 2.3 7.17-1.42 7.17-1.42s-.49 4.65 1.21 5.18c1.7.53 3.95-3.9 2.3-6.74 0 0 2.56 1.13 4.97-.65 2.41-1.78-.15-3.45-3.56-3.16 0 0 2.44-7.98-2.49-6.47-2.44.74-3.31 3.64-2.05 8.1Z" fill="#fff"/><path d="M37.86 91.17c-.22-.22-.46-.42-.7-.61-.35-.27-.72-.53-1.07-.79-.34-.25-.7-.47-1.07-.67-.21-.12-.43-.23-.66-.32-.35-.15-.65-.21-1.02-.16-.35.04-.67.45-.4.78.31.4.7.48 1.05.66.18.09.36.19.54.3.37.22.7.47 1.04.72.34.25.69.49 1.03.74.53.41 1.07.81 1.71 1.04.06.02.13 0 .18-.03.42-.41-.32-1.35-.62-1.65l-.01-.01Z" fill="#3C5265"/></g><defs><clipPath id="a"><path fill="#fff" d="M0 0h342.9v299.7H0z"/></clipPath></defs></svg>