<svg width="232" height="146" viewBox="0 0 232 146" fill="none" xmlns="http://www.w3.org/2000/svg">
<g clip-path="url(#clip0_46_334)">
<path d="M44.8623 20.086L-0.00183105 49.7384L44.1891 115.01L89.0531 85.3576L44.8623 20.086Z" fill="#FAFAFA" fill-opacity="1"/>
<path d="M65.8761 82.2704L65.3643 85.3836L43.0604 82.2072L43.5722 79.094L65.8761 82.2704Z" fill="#E0E0E0"/>
<path d="M54.6402 71.1648L57.843 71.6191L54.2923 93.3167L51.0934 92.8584L54.6402 71.1648Z" fill="#E0E0E0"/>
<path d="M34.0996 43.5847C34.1316 43.6321 29.6372 46.6584 24.0593 50.3444C18.4813 54.0305 13.9349 56.9817 13.9029 56.9343C13.871 56.8869 18.3653 53.8606 23.9433 50.1745C29.5213 46.4885 34.0676 43.5373 34.0996 43.5847Z" fill="#E0E0E0"/>
<path d="M50.5977 39.4956C50.6297 39.543 43.1524 44.5407 33.8997 50.6525C24.6431 56.7683 17.1178 61.687 17.0858 61.6396C17.0538 61.5922 24.5271 56.5984 33.7837 50.4787C43.0364 44.3629 50.5657 39.4443 50.5977 39.4917V39.4956Z" fill="#E0E0E0"/>
<path d="M53.9045 44.3788C53.9365 44.4262 46.4592 49.4239 37.2065 55.5357C27.9499 61.6515 20.4246 66.5702 20.3926 66.5228C20.3606 66.4754 27.8339 61.4816 37.0906 55.3619C46.3432 49.2461 53.8725 44.3274 53.9045 44.3749V44.3788Z" fill="#E0E0E0"/>
<path d="M57.2113 49.2659C57.2432 49.3133 49.7659 54.311 40.5133 60.4228C31.2566 66.5386 23.7314 71.4573 23.6994 71.4098C23.6674 71.3624 31.1407 66.3687 40.3973 60.249C49.65 54.1332 57.1793 49.2145 57.2113 49.2619V49.2659Z" fill="#E0E0E0"/>
<path d="M60.522 54.153C60.554 54.2004 53.0767 59.1981 43.8241 65.3099C34.5674 71.4257 27.0422 76.3443 27.0102 76.2969C26.9782 76.2495 34.4515 71.2558 43.7081 65.1361C52.9608 59.0203 60.49 54.1016 60.522 54.149V54.153Z" fill="#E0E0E0"/>
<path d="M194.885 63.8255L157.206 88.7288L194.318 143.545L231.997 118.642L194.885 63.8255Z" fill="#FAFAFA" fill-opacity="1"/>
<path d="M212.531 116.057L212.107 118.673L193.374 116.006L193.802 113.39L212.531 116.057Z" fill="#E0E0E0"/>
<path d="M203.098 106.729L205.789 107.113L202.807 125.334L200.12 124.95L203.098 106.729Z" fill="#E0E0E0"/>
<path d="M185.849 83.5703C185.881 83.6177 182.11 86.1659 177.424 89.2594C172.737 92.3568 168.915 94.826 168.883 94.7786C168.851 94.7312 172.621 92.1829 177.308 89.0855C181.99 85.9921 185.817 83.5189 185.849 83.5663V83.5703Z" fill="#E0E0E0"/>
<path d="M199.704 80.1332C199.736 80.1806 193.462 84.3842 185.689 89.5202C177.916 94.6562 171.59 98.7808 171.558 98.7334C171.526 98.6859 177.8 94.4863 185.573 89.3464C193.342 84.2104 199.672 80.0858 199.704 80.1332Z" fill="#E0E0E0"/>
<path d="M202.483 84.234C202.515 84.2815 196.241 88.4851 188.468 93.621C180.695 98.757 174.369 102.882 174.337 102.834C174.305 102.787 180.579 98.5871 188.352 93.4472C196.121 88.3112 202.451 84.1866 202.483 84.234Z" fill="#E0E0E0"/>
<path d="M205.258 88.3388C205.29 88.3862 199.016 92.5898 191.243 97.7219C183.47 102.858 177.144 106.982 177.112 106.935C177.08 106.888 183.354 102.688 191.127 97.548C198.896 92.4121 205.226 88.2875 205.258 88.3349V88.3388Z" fill="#E0E0E0"/>
<path d="M208.037 92.4438C208.069 92.4912 201.795 96.6948 194.022 101.831C186.249 106.967 179.923 111.091 179.891 111.044C179.859 110.996 186.133 106.797 193.906 101.657C201.675 96.5209 208.005 92.3964 208.037 92.4438Z" fill="#E0E0E0"/>
<path d="M135.28 22.4882L94.1676 0.762329L61.7898 60.5751L102.902 82.301L135.28 22.4882Z" fill="white"/>
<path d="M95.8653 63.5874L93.2542 64.4684L86.6366 46.3858L89.2437 45.5009L95.8653 63.5874Z" fill="#E0E0E0"/>
<path d="M99.8638 50.6132L100.815 53.2088L82.6381 59.3601L81.6864 56.7645L99.8638 50.6132Z" fill="#E0E0E0"/>
<path d="M112.779 23.9297C112.747 23.989 108.577 21.8477 103.467 19.1454C98.3524 16.4431 94.2379 14.2069 94.2698 14.1477C94.3018 14.0884 98.4723 16.2297 103.582 18.932C108.693 21.6344 112.811 23.8705 112.779 23.9297Z" fill="#E0E0E0"/>
<path d="M122.644 34.6915C122.612 34.7508 115.71 31.1675 107.233 26.6873C98.7522 22.2072 91.9027 18.5251 91.9347 18.4658C91.9667 18.4066 98.8682 21.9899 107.349 26.474C115.826 30.9541 122.676 34.6362 122.644 34.6955V34.6915Z" fill="#E0E0E0"/>
<path d="M120.22 39.1677C120.188 39.227 113.287 35.6437 104.81 31.1635C96.3291 26.6834 89.4796 23.0013 89.5116 22.942C89.5436 22.8827 96.4451 26.4661 104.926 30.9502C113.403 35.4303 120.252 39.1124 120.22 39.1717V39.1677Z" fill="#E0E0E0"/>
<path d="M117.797 43.6439C117.765 43.7032 110.864 40.1199 102.387 35.6397C93.906 31.1596 87.0564 27.4775 87.0884 27.4182C87.1204 27.3589 94.0219 30.9423 102.503 35.4264C110.98 39.9065 117.829 43.5886 117.797 43.6479V43.6439Z" fill="#E0E0E0"/>
<path d="M115.374 48.1201C115.342 48.1794 108.441 44.5961 99.9638 40.1159C91.4829 35.6358 84.6333 31.9537 84.6653 31.8944C84.6973 31.8351 91.5988 35.4185 100.08 39.9026C108.557 44.3827 115.406 48.0648 115.374 48.1241V48.1201Z" fill="#E0E0E0"/>
<path d="M76.4844 64.4445L62.3455 136.269L60.4941 145.672L154.884 145.214C159.118 145.194 162.873 141.476 164.237 135.957L180.975 68.1463C182.01 63.9546 179.739 59.5969 176.524 59.5969L80.9907 59.6957C78.8795 59.6957 77.0362 61.6434 76.4844 64.4445Z" fill="#77A4C9"/>
<g opacity="0.5">
<path d="M76.4844 64.4445L62.3455 136.269L60.4941 145.672L154.884 145.214C159.118 145.194 162.873 141.476 164.237 135.957L180.975 68.1463C182.01 63.9546 179.739 59.5969 176.524 59.5969L80.9907 59.6957C78.8795 59.6957 77.0362 61.6434 76.4844 64.4445Z" fill="black"/>
</g>
<path d="M145.831 131.406L140.835 91.6198L135.839 51.8338C135.431 48.5744 132.8 46.1408 129.697 46.1526L107.781 46.2237C106.158 46.2277 104.602 46.9112 103.451 48.1201L93.0463 59.0479L32.0964 59.3639C28.3738 59.3837 25.5108 62.8643 26.0026 66.7795L35.2833 140.323C35.6951 143.578 38.3182 146.008 41.417 146L147.639 145.795C159.47 146.036 160.598 142.587 160.598 142.587C147.039 145.554 145.831 131.418 145.831 131.41V131.406Z" fill="#C5E5E8"/>
<g opacity="0.5">
<path d="M100.032 115.48L96.4491 119.281L68.8591 94.7547L72.4418 90.9541L100.032 115.48Z" fill="white"/>
<path d="M94.9456 90.1125L98.9082 93.6327L73.9412 120.122L69.9827 116.602L94.9456 90.1125Z" fill="white"/>
</g>
</g>
<defs>
<clipPath id="clip0_46_334">
<rect width="232" height="146" fill="white"/>
</clipPath>
</defs>
</svg>
